<?xml version="1.0" standalone="no"?>
<!DOCTYPE svg PUBLIC "-//W3C//DTD SVG 20010904//EN"
 "http://www.w3.org/TR/2001/REC-SVG-20010904/DTD/svg10.dtd">
<svg version="1.0" xmlns="http://www.w3.org/2000/svg"
 width="152.000000pt" height="152.000000pt" viewBox="0 0 152.000000 152.000000"
 preserveAspectRatio="xMidYMid meet">
<metadata>
Created by potrace 1.11, written by Peter Selinger 2001-2013
</metadata>
<g transform="translate(0.000000,152.000000) scale(0.100000,-0.100000)"
fill="#000000" stroke="none">
<path d="M359 1420 c0 -8 -1 -298 -2 -643 l-2 -629 40 6 c60 10 300 94 364
129 71 38 149 97 184 139 16 18 39 47 53 63 58 71 134 262 150 380 3 22 10 59
14 83 8 46 10 305 2 411 l-4 64 -21 -25 c-22 -25 -53 -65 -79 -101 -15 -20 6
-19 -459 -17 l-136 0 -52 78 c-28 42 -51 70 -52 62z m554 -270 c53 -20 103
-63 127 -109 17 -33 14 -121 -6 -170 -27 -67 -53 -81 -150 -81 -83 0 -83 0
-110 34 l-27 34 -22 -32 c-20 -30 -22 -31 -110 -34 -103 -3 -125 5 -150 56
-53 113 -14 246 84 288 104 45 266 51 364 14z"/>
<path d="M839 1045 c-88 -48 -32 -182 64 -154 74 21 81 133 11 159 -33 13 -44
12 -75 -5z"/>
<path d="M540 1030 c-65 -65 16 -168 105 -134 43 17 54 96 18 137 -23 25 -97
23 -123 -3z"/>
</g>
</svg>
